# xmcd
#
# Track frame offsets:
#	150
#	13012
#	28610
#	42615
#	57505
#	72347
#	90327
#	106217
#	119760
#	132195
#	142150
#	161990
#	178155
#
# Disc length: 2540 seconds
#
# Revision: 1
# Processed by: cddbd v1.4PL0 Copyright (c) Steve Scherf et al.
# Submitted via: audiograbber 1.82.02
#
DISCID=c309ea0d
DTITLE=Anne Kirkpatrick - Out Of The Blue
DYEAR=1991
DGENRE=Country
TTITLE0=I Guess We've Been Together For Too Long
TTITLE1=Train Wreck Of Emotion
TTITLE2=I Don't Go Back Any More
TTITLE3=Take Your Time
TTITLE4=A Bottle Of Wine And Patsy Cline
TTITLE5=Out Of The Blue
TTITLE6=The Same Mistake
TTITLE7=Sight For Sore Eyes
TTITLE8=Broken Bleeding Hurtin' Heart
TTITLE9=Sweet Moments
TTITLE10=The Dance
TTITLE11=There Goes My Heart Again
TTITLE12=Goodbye
EXTD=
EXTT0=
EXTT1=
EXTT2=
EXTT3=
EXTT4=
EXTT5=
EXTT6=
EXTT7=
EXTT8=
EXTT9=
EXTT10=
EXTT11=
EXTT12=
PLAYORDER=
